<svg id="Layer_1" data-name="Layer 1" xmlns="http://www.w3.org/2000/svg" xmlns:xlink="http://www.w3.org/1999/xlink" viewBox="0 0 13.7 18"><defs><style>.cls-1{fill:none;}.cls-2{clip-path:url(#clip-path);}.cls-3{fill:#431d89;}</style><clipPath id="clip-path" transform="translate(-290.31 -412.07)"><rect class="cls-1" x="290.31" y="412.07" width="13.72" height="18"/></clipPath></defs><g class="cls-2"><path class="cls-3" d="M291.88,430.07h10.55a1.58,1.58,0,0,0,1.12-.47,1.56,1.56,0,0,0,.46-1.12V417.35h-3.68a1.59,1.59,0,0,1-1.58-1.59v-3.69h-6.87a1.54,1.54,0,0,0-1.11.47,1.57,1.57,0,0,0-.46,1.11v14.83a1.62,1.62,0,0,0,.46,1.12A1.58,1.58,0,0,0,291.88,430.07ZM294,419.48h6.34a.57.57,0,0,1,.37.16.56.56,0,0,1,.15.37.45.45,0,0,1,0,.2.39.39,0,0,1-.11.17.66.66,0,0,1-.17.12.45.45,0,0,1-.2,0H294a.52.52,0,0,1-.37-.16.5.5,0,0,1-.15-.37.51.51,0,0,1,.15-.37A.52.52,0,0,1,294,419.48Zm0,2.12h6.34a.51.51,0,0,1,.37.15.52.52,0,0,1,.16.37.55.55,0,0,1-.16.38.51.51,0,0,1-.37.15H294a.51.51,0,0,1-.37-.15.54.54,0,0,1-.15-.38.51.51,0,0,1,.52-.52Zm0,2.11h6.34a.5.5,0,0,1,.48.32.52.52,0,0,1,0,.21.53.53,0,0,1-.15.36.52.52,0,0,1-.37.16H294a.51.51,0,0,1-.52-.52.54.54,0,0,1,.15-.38A.51.51,0,0,1,294,423.71Zm0,2.11h4.23a.56.56,0,0,1,.37.15.55.55,0,0,1,.16.38.55.55,0,0,1-.53.53H294a.52.52,0,0,1-.37-.16.51.51,0,0,1-.15-.37.54.54,0,0,1,.15-.38A.56.56,0,0,1,294,425.82Z" transform="translate(-290.31 -412.07)"/><path class="cls-3" d="M300.33,416.29h3.37l-3.9-3.85v3.38a.57.57,0,0,0,.18.34A.54.54,0,0,0,300.33,416.29Z" transform="translate(-290.31 -412.07)"/></g></svg>