<svg id="Layer_1" data-name="Layer 1" xmlns="http://www.w3.org/2000/svg" viewBox="0 0 18 17.25"><defs><style>.cls-1{fill:#431d89;}</style></defs><path class="cls-1" d="M303.17,416.94v6a.75.75,0,0,1-.75.75H296.9l-3.48,3h5.25l4.5,3v-3h2.25a.75.75,0,0,0,.75-.75v-8.25a.76.76,0,0,0-.75-.75Z" transform="translate(-288.17 -412.44)"/><path class="cls-1" d="M300.92,412.44h-12a.75.75,0,0,0-.75.75v8.25a.74.74,0,0,0,.75.75h2.25v4.1l5.25-4.1h4.5a.75.75,0,0,0,.75-.75v-8.25A.76.76,0,0,0,300.92,412.44Z" transform="translate(-288.17 -412.44)"/></svg>