<svg width="24" height="24" viewBox="0 0 24 24" fill="none" xmlns="http://www.w3.org/2000/svg">
<g id="Onboarding-Icon">
<path id="icon/image/wb_incandescent_24px" fill-rule="evenodd" clip-rule="evenodd" d="M9 22.475L9 17.665C7.21 16.625 6 14.695 6 12.475C6 9.16497 8.69 6.47497 12 6.47497C15.31 6.47497 18 9.16498 18 12.475C18 14.695 16.79 16.625 15 17.665L15 22.475L9 22.475ZM20 13.475L23 13.475L23 11.475L20 11.475L20 13.475ZM19.04 4.02497L20.45 5.43498L18.66 7.23498L17.25 5.82498L19.04 4.02497ZM11 4.47497L11 1.52497L13 1.52497L13 4.47497L11 4.47497ZM4 11.475L1 11.475L1 13.475L4 13.475L4 11.475ZM4.97 4.01497L6.76 5.81497L5.36 7.21497L3.56 5.42497L4.97 4.01497Z" fill="#441C99"/>
</g>
</svg>
